<!--?xml version="1.0" encoding="utf-8"?-->
<!-- Generator: Adobe Illustrator 18.1.1, SVG Export Plug-In . SVG Version: 6.00 Build 0)  -->

<svg version="1.1" id="_x32_" xmlns="http://www.w3.org/2000/svg" xmlns:xlink="http://www.w3.org/1999/xlink" x="0px" y="0px" viewBox="0 0 512 512" style="width: 256px; height: 256px; opacity: 1;" xml:space="preserve">
<style type="text/css">
	.st0{fill:#4B4B4B;}
</style>
<g>
	<path class="st0" d="M427.678,312.42c6.46-11.958,10.177-25.604,10.168-40.162c0-44.049-33.658-80.197-76.616-84.314
		c6.657-6.197,15.64-14.532,15.64-36.677c0-30.854-20.661-56.834-48.873-65.024c-14.533-7.186-35.04-20.943-41.466-38.918
		c-7.279-20.362-43.64-46.197-65.46-40.376c-18.316,4.884-14.55,12.368-5.822,21.096c18.42,20.865-10.262,46.598-28.204,57.413
		c-29.755,7.16-51.916,33.855-51.916,65.809c0,22.145,8.984,30.48,15.64,36.677c-42.958,4.117-76.616,40.264-76.616,84.314
		c-0.009,14.558,3.708,28.204,10.168,40.162C43.614,314.986,0,363.339,0,415.297c0,13.612,2.055,26.338,6.41,37.81
		c6.494,17.336,18.726,31.34,34.672,40.179l0.068,0.034c15.794,8.702,34.562,12.563,55.351,12.563H256h159.498
		c20.788,0,39.557-3.861,55.351-12.563l0.068-0.034c15.947-8.839,28.178-22.843,34.673-40.179c4.356-11.473,6.41-24.198,6.41-37.81
		C512,363.339,468.386,314.986,427.678,312.42z" style="fill: rgb(158, 69, 0);"></path>
</g>
</svg>
